<?xml version="1.0" standalone="no"?>
<!DOCTYPE svg PUBLIC "-//W3C//DTD SVG 20010904//EN"
 "http://www.w3.org/TR/2001/REC-SVG-20010904/DTD/svg10.dtd">
<svg version="1.0" xmlns="http://www.w3.org/2000/svg"
 width="500.000000pt" height="500.000000pt" viewBox="0 0 500.000000 500.000000"
 preserveAspectRatio="xMidYMid meet">
<metadata>
Created by potrace 1.16, written by Peter Selinger 2001-2019
</metadata>
<g transform="translate(0.000000,500.000000) scale(0.100000,-0.100000)"
fill="#000000" stroke="none">
<path d="M1854 3515 c-242 -52 -442 -235 -514 -470 -59 -192 -25 -416 89 -583
231 -341 698 -399 1018 -126 l53 45 50 -43 c220 -190 497 -227 760 -102 79 38
107 58 175 127 89 91 132 159 172 274 24 68 27 94 27 203 1 104 -3 138 -22
200 -88 283 -328 471 -622 487 -126 7 -218 -13 -340 -73 -76 -38 -109 -62
-170 -123 -129 -131 -179 -242 -204 -453 -16 -140 -34 -190 -90 -255 -130
-149 -381 -138 -504 22 -46 60 -65 119 -65 205 -2 168 111 296 286 325 l37 6
0 174 0 175 -37 -1 c-21 0 -66 -7 -99 -14z m1292 -370 c67 -30 129 -93 162
-164 22 -46 26 -70 26 -136 -1 -97 -24 -154 -88 -223 -204 -218 -566 -75 -566
223 0 155 104 286 257 325 55 13 150 2 209 -25z"/>
<path d="M1310 1635 l0 -175 1190 0 1190 0 0 175 0 175 -1190 0 -1190 0 0
-175z"/>
</g>
</svg>
