<svg width="689" height="556" viewBox="0 0 689 556" fill="none" xmlns="http://www.w3.org/2000/svg">
<rect y="460" width="689" height="96" fill="#427AA1"/>
<path d="M492 50C572.947 50 639 116.023 639 198C639 279.977 572.947 346 492 346C411.053 346 345 279.977 345 198C345 116.023 411.053 50 492 50Z" stroke="#427AA1" stroke-width="100"/>
<mask id="path-3-inside-1_0_1" fill="white">
<path d="M394 198C394 237.161 382.446 275.442 360.8 308.003C339.153 340.564 308.386 365.942 272.389 380.928C236.392 395.914 196.781 399.835 158.567 392.195C120.353 384.556 85.2509 365.698 57.7 338.007C30.149 310.316 11.3866 275.036 3.7853 236.628C-3.81599 198.22 0.0852687 158.408 14.9957 122.229C29.9062 86.0489 55.1562 55.1255 87.5527 33.369C119.949 11.6125 158.037 -4.66987e-07 197 0L197 98.5941C177.439 98.5941 158.317 104.424 142.052 115.347C125.787 126.27 113.111 141.795 105.625 159.959C98.139 178.123 96.1804 198.11 99.9966 217.393C103.813 236.676 113.232 254.388 127.064 268.291C140.896 282.193 158.519 291.66 177.705 295.496C196.89 299.331 216.777 297.363 234.849 289.839C252.921 282.315 268.368 269.574 279.236 253.227C290.103 236.88 295.904 217.661 295.904 198H394Z"/>
</mask>
<path d="M394 198C394 237.161 382.446 275.442 360.8 308.003C339.153 340.564 308.386 365.942 272.389 380.928C236.392 395.914 196.781 399.835 158.567 392.195C120.353 384.556 85.2509 365.698 57.7 338.007C30.149 310.316 11.3866 275.036 3.7853 236.628C-3.81599 198.22 0.0852687 158.408 14.9957 122.229C29.9062 86.0489 55.1562 55.1255 87.5527 33.369C119.949 11.6125 158.037 -4.66987e-07 197 0L197 98.5941C177.439 98.5941 158.317 104.424 142.052 115.347C125.787 126.27 113.111 141.795 105.625 159.959C98.139 178.123 96.1804 198.11 99.9966 217.393C103.813 236.676 113.232 254.388 127.064 268.291C140.896 282.193 158.519 291.66 177.705 295.496C196.89 299.331 216.777 297.363 234.849 289.839C252.921 282.315 268.368 269.574 279.236 253.227C290.103 236.88 295.904 217.661 295.904 198H394Z" fill="white" stroke="#427AA1" stroke-width="200" mask="url(#path-3-inside-1_0_1)"/>
</svg>
