<?xml version="1.0" encoding="UTF-8"?>
<svg version="1.1" xmlns="http://www.w3.org/2000/svg" width="225" height="225">
<path d="M0 0 C5.96845674 3.51890262 11.58324651 8.75340066 13.6875 15.4375 C14.95582629 24.97583135 13.27418888 31.65604049 7.6875 39.4375 C5.19155399 42.61289799 2.67578309 45.71170124 -0.3125 48.4375 C-0.9725 48.4375 -1.6325 48.4375 -2.3125 48.4375 C-2.6425 49.4275 -2.9725 50.4175 -3.3125 51.4375 C-3.9725 51.4375 -4.6325 51.4375 -5.3125 51.4375 C-5.6425 52.4275 -5.9725 53.4175 -6.3125 54.4375 C-6.9725 54.4375 -7.6325 54.4375 -8.3125 54.4375 C-8.51875 54.97375 -8.725 55.51 -8.9375 56.0625 C-10.84500426 59.35728009 -13.36069384 62.03113628 -16.3125 64.4375 C-16.9725 64.4375 -17.6325 64.4375 -18.3125 64.4375 C-18.8075 65.9225 -18.8075 65.9225 -19.3125 67.4375 C-19.9725 67.4375 -20.6325 67.4375 -21.3125 67.4375 C-21.8075 68.9225 -21.8075 68.9225 -22.3125 70.4375 C-22.9725 70.4375 -23.6325 70.4375 -24.3125 70.4375 C-24.621875 71.241875 -24.621875 71.241875 -24.9375 72.0625 C-26.84500426 75.35728009 -29.36069384 78.03113628 -32.3125 80.4375 C-32.9725 80.4375 -33.6325 80.4375 -34.3125 80.4375 C-34.8075 81.9225 -34.8075 81.9225 -35.3125 83.4375 C-35.9725 83.4375 -36.6325 83.4375 -37.3125 83.4375 C-37.8075 84.9225 -37.8075 84.9225 -38.3125 86.4375 C-38.9725 86.4375 -39.6325 86.4375 -40.3125 86.4375 C-40.7146875 87.3346875 -40.7146875 87.3346875 -41.125 88.25 C-42.31167406 90.43597854 -43.40849113 91.85082594 -45.3125 93.4375 C-45.9725 93.4375 -46.6325 93.4375 -47.3125 93.4375 C-47.8075 94.9225 -47.8075 94.9225 -48.3125 96.4375 C-48.9725 96.4375 -49.6325 96.4375 -50.3125 96.4375 C-50.8075 97.9225 -50.8075 97.9225 -51.3125 99.4375 C-51.9725 99.4375 -52.6325 99.4375 -53.3125 99.4375 C-53.621875 100.241875 -53.621875 100.241875 -53.9375 101.0625 C-55.84500426 104.35728009 -58.36069384 107.03113628 -61.3125 109.4375 C-61.9725 109.4375 -62.6325 109.4375 -63.3125 109.4375 C-63.8075 110.9225 -63.8075 110.9225 -64.3125 112.4375 C-64.9725 112.4375 -65.6325 112.4375 -66.3125 112.4375 C-66.8075 113.9225 -66.8075 113.9225 -67.3125 115.4375 C-67.9725 115.4375 -68.6325 115.4375 -69.3125 115.4375 C-69.621875 116.241875 -69.621875 116.241875 -69.9375 117.0625 C-71.84500426 120.35728009 -74.36069384 123.03113628 -77.3125 125.4375 C-77.9725 125.4375 -78.6325 125.4375 -79.3125 125.4375 C-79.6425 126.4275 -79.9725 127.4175 -80.3125 128.4375 C-80.9725 128.4375 -81.6325 128.4375 -82.3125 128.4375 C-82.6425 129.4275 -82.9725 130.4175 -83.3125 131.4375 C-83.9725 131.4375 -84.6325 131.4375 -85.3125 131.4375 C-85.54324219 132.01371094 -85.77398437 132.58992187 -86.01171875 133.18359375 C-87.64108746 136.00685425 -89.55695873 137.50177898 -92.125 139.5 C-92.97707031 140.17160156 -93.82914063 140.84320313 -94.70703125 141.53515625 C-101.81751814 146.72677111 -107.52173089 148.38928252 -116.3125 147.4375 C-123.80870827 145.04702804 -128.77866088 139.69107119 -133.3125 133.4375 C-136.01735691 127.66907756 -136.47123514 121.45640415 -134.6953125 115.296875 C-130.19763019 105.50546042 -121.66038895 97.48648444 -114.14941406 89.98388672 C-113.27019287 89.0979483 -112.39097168 88.21200989 -111.48510742 87.29922485 C-109.10025984 84.89877065 -106.71106588 82.50283653 -104.31905079 80.10953665 C-102.81824741 78.60730048 -101.31888169 77.10364425 -99.81999969 75.59949112 C-94.57220132 70.33326147 -89.31933623 65.07214882 -84.06152344 59.81591797 C-79.18996844 54.94556428 -74.32968398 50.06416161 -69.47454286 45.17745006 C-65.27931038 40.95593036 -61.07626405 36.74229639 -56.86723113 32.53453648 C-54.3650565 30.03286759 -51.86596682 27.52831136 -49.37476349 25.01571274 C-46.59218104 22.20988041 -43.79338976 19.4205535 -40.99316406 16.63232422 C-40.18860779 15.81652893 -39.38405151 15.00073364 -38.55511475 14.16021729 C-28.39552416 4.11002919 -14.98587301 -6.87587115 0 0 Z " fill="#FC5555" transform="translate(173.3125,39.5625)"/>
<path d="M0 0 C1.28361168 0.00212242 1.28361168 0.00212242 2.59315491 0.00428772 C5.30302556 0.00984635 8.01281093 0.022391 10.72265625 0.03515625 C12.56966026 0.0401766 14.41666557 0.04473857 16.26367188 0.04882812 C20.77086576 0.0598022 25.27799659 0.07703795 29.78515625 0.09765625 C29.78515625 4.11951196 28.45527091 4.83403371 25.67358398 7.67675781 C24.77522324 8.6007135 23.87686249 9.52466919 22.95127869 10.47662354 C21.95786378 11.48126283 20.96366789 12.48513038 19.96875 13.48828125 C18.95410693 14.51764061 17.93954607 15.54708101 16.92506409 16.57659912 C14.79449817 18.73417673 12.65727967 20.88492806 10.51635742 23.03222656 C7.77583624 25.78361437 5.06164581 28.55949418 2.35304165 31.34225845 C0.26552822 33.47817158 -1.83975778 35.5958695 -3.95033073 37.70897675 C-4.95884213 38.72471795 -5.9607329 39.74707775 -6.9557209 40.77606964 C-8.35054686 42.21485987 -9.77352566 43.6261945 -11.19750977 45.03613281 C-11.99915054 45.84648987 -12.80079132 46.65684692 -13.62672424 47.49176025 C-16.21484375 49.09765625 -16.21484375 49.09765625 -19.88731384 48.91278076 C-26.96922042 47.17796972 -32.20217021 43.11666656 -36.21484375 37.09765625 C-39.10400783 29.68566463 -38.89159538 22.10851639 -36.44140625 14.59765625 C-33.75456929 9.12130066 -29.18562281 5.39991556 -23.6484375 2.97265625 C-15.87946719 0.50556339 -8.09643682 -0.05115136 0 0 Z " fill="#FC5353" transform="translate(55.21484375,86.90234375)"/>
<path d="M0 0 C7.12168705 2.40149912 11.85811027 6.64625864 15.48535156 13.17529297 C17.66950672 19.72775843 17.83091346 29.34999888 14.92285156 35.73779297 C10.78720189 42.36636039 5.63273039 45.47619136 -1.75384521 47.56851196 C-6.27844465 48.56294756 -10.71667068 48.65537208 -15.33496094 48.68701172 C-16.31963348 48.70496292 -17.30430603 48.72291412 -18.31881714 48.7414093 C-21.42571892 48.79505643 -24.53247121 48.82926054 -27.63964844 48.86279297 C-29.76206488 48.89600636 -31.8844617 48.93049966 -34.00683594 48.96630859 C-39.17599804 49.05075619 -44.34511932 49.11778315 -49.51464844 49.17529297 C-49.51464844 44.34976694 -48.77205606 43.91260302 -45.51074219 40.57446289 C-44.63562988 39.67060349 -43.76051758 38.76674408 -42.85888672 37.835495 C-41.89086257 36.8580364 -40.92192667 35.88148003 -39.95214844 34.90576172 C-38.96217607 33.90039468 -37.97243318 32.89480162 -36.98291016 31.88899231 C-34.90521467 29.78282792 -32.8191484 27.68535992 -30.72802734 25.5925293 C-28.05352743 22.91284998 -25.41019195 20.20455949 -22.77351379 17.48772717 C-20.73840239 15.40055604 -18.68317456 13.33411514 -16.62185669 11.27285194 C-15.63853461 10.28297399 -14.66255506 9.28574435 -13.69430542 8.28111839 C-5.15080932 -0.55538598 -5.15080932 -0.55538598 0 0 Z " fill="#FC5454" transform="translate(190.5146484375,88.82470703125)"/>
<path d="M0 0 C1.77091507 -0.01073296 1.77091507 -0.01073296 3.5776062 -0.02168274 C6.06719203 -0.02945131 8.55684611 -0.02446569 11.04638672 -0.00756836 C14.86165049 0.0116908 18.67328953 -0.02777951 22.48828125 -0.07226562 C24.90885634 -0.07255591 27.32943478 -0.06941791 29.75 -0.0625 C30.89171661 -0.07778244 32.03343323 -0.09306488 33.20974731 -0.10881042 C36.17652157 -0.06496987 38.85190035 0.0285195 41.7421875 0.69921875 C46.77671909 6.05807189 47.10964539 11.58088479 47.0078125 18.6328125 C46.31385099 26.64398583 41.9258408 30.91279448 36.05859375 36.03515625 C30.32009689 40.15758401 24.61266874 40.66676714 17.7421875 39.69921875 C8.66569588 36.76552423 1.99150442 30.89078016 -4.65332031 24.28027344 C-6.38852494 22.57041568 -8.16021853 20.90430879 -9.9375 19.23828125 C-11.14960548 18.08064879 -12.36056764 16.92181788 -13.5703125 15.76171875 C-14.15224365 15.21829834 -14.7341748 14.67487793 -15.33374023 14.11499023 C-19.25155926 10.27489385 -19.25155926 10.27489385 -19.27807617 7.83374023 C-15.28436064 -0.52162108 -8.19505025 -0.05030909 0 0 Z " fill="#FC5454" transform="translate(140.2578125,147.30078125)"/>
<path d="M0 0 C7.40055042 3.25818014 13.02865058 9.01090748 18.71435547 14.60546875 C20.52206319 16.37196501 22.35993534 18.10264224 24.203125 19.83203125 C25.41131878 20.98706644 26.61838301 22.14328453 27.82421875 23.30078125 C28.40212158 23.84025391 28.98002441 24.37972656 29.57543945 24.93554688 C33.42065597 28.70316004 33.42065597 28.70316004 33.55078125 31.42578125 C32.10613676 33.8847506 30.65054277 35.46913813 28.44921875 37.30078125 C25.65380859 37.84667969 25.65380859 37.84667969 22.41015625 37.91015625 C21.20149902 37.94294678 19.9928418 37.9757373 18.74755859 38.00952148 C16.80550537 38.02994507 16.80550537 38.02994507 14.82421875 38.05078125 C13.48386739 38.07453561 12.14353474 38.09936853 10.80322266 38.12524414 C8.04983705 38.17489414 5.29664108 38.21145667 2.54296875 38.24072266 C-1.36582216 38.28801015 -5.26921877 38.4210097 -9.17578125 38.5625 C-11.50906665 38.62297254 -13.84239937 38.68165385 -16.17578125 38.73828125 C-17.26455566 38.78500977 -18.35333008 38.83173828 -19.47509766 38.87988281 C-22.29344714 38.9186571 -24.79756451 38.9038949 -27.55078125 38.30078125 C-32.36251579 33.14129598 -32.9036798 27.93599393 -32.83203125 21.15625 C-32.03032329 13.01668725 -26.96670627 8.2168148 -20.98828125 3.11328125 C-14.57070465 -1.65876289 -7.71580086 -2.11505108 0 0 Z " fill="#FC5454" transform="translate(70.55078125,38.69921875)"/>
<path d="M0 0 C4.41919306 2.34212887 7.7870481 6.17512418 11.31518555 9.66088867 C12.79142836 11.10798073 14.29648396 12.51994534 15.8046875 13.93359375 C22.69627745 20.71087952 22.69627745 20.71087952 23.48803711 24.3737793 C22.85632158 30.85281639 18.90319465 35.52936376 14.16210938 39.63085938 C8.38549722 43.70846796 2.51040925 44.53355459 -4.43945312 43.79492188 C-12.26967498 42.34731783 -16.92593017 38.55080537 -21.81445312 32.44335938 C-23.64829298 28.7876265 -24.93317068 26.0891712 -24.01367188 22.05273438 C-21.3576556 18.29882621 -18.23331871 15.14581561 -14.90942383 11.99487305 C-13.32319576 10.48740603 -11.77797796 8.94549755 -10.234375 7.39453125 C-2.75902057 0.07225369 -2.75902057 0.07225369 0 0 Z " fill="#FC5454" transform="translate(113.013671875,163.947265625)"/>
<path d="M0 0 C5.31165188 3.26336782 9.83426914 8.34522273 11.4375 14.4375 C11.76855469 16.75244141 11.76855469 16.75244141 11.4375 19.4375 C9.48144531 22.04052734 9.48144531 22.04052734 6.765625 24.7734375 C6.28679871 25.25704742 5.80797241 25.74065735 5.31463623 26.23892212 C4.30183466 27.25511876 3.28272061 28.26505792 2.2578125 29.26904297 C0.68901228 30.81101359 -0.85126823 32.37791492 -2.390625 33.94921875 C-3.37860862 34.93389935 -4.36814162 35.91702835 -5.359375 36.8984375 C-6.26010742 37.79353027 -7.16083984 38.68862305 -8.08886719 39.61083984 C-10.5625 41.4375 -10.5625 41.4375 -12.57397461 41.49682617 C-16.99077804 39.14390904 -20.3606635 35.31763597 -23.89135742 31.8293457 C-25.36760024 30.38225364 -26.87265583 28.97028904 -28.38085938 27.55664062 C-35.29964061 20.75261458 -35.29964061 20.75261458 -36.03344727 17.08129883 C-35.38442908 11.04342102 -32.04312422 6.59321291 -27.625 2.6875 C-20.14066059 -2.81119834 -8.59728642 -3.88210802 0 0 Z " fill="#FC5454" transform="translate(124.5625,19.5625)"/>
<path d="M0 0 C0.99 0.495 0.99 0.495 2 1 C-7.51055241 11.66776364 -17.58671916 21.75040794 -27.6875 31.85546875 C-29.48070321 33.65189071 -31.27383347 35.4483855 -33.06689453 37.24494934 C-36.80015489 40.9841592 -40.53541708 44.72135895 -44.27197266 48.45727539 C-48.58871915 52.77341679 -52.89980513 57.09515711 -57.20839405 61.41944045 C-61.37354083 65.59921459 -65.54418277 69.77347458 -69.71694946 73.94564247 C-71.48565152 75.71552613 -73.25272869 77.48703511 -75.01815796 79.26018333 C-77.47355427 81.7253251 -79.93514183 84.18411265 -82.3984375 86.64135742 C-83.12778 87.37631943 -83.8571225 88.11128143 -84.60856628 88.86851501 C-85.27834 89.53409424 -85.94811371 90.19967346 -86.63818359 90.88542175 C-87.21845306 91.46623599 -87.79872253 92.04705023 -88.39657593 92.6454649 C-90 94 -90 94 -93 95 C-91.56906155 91.73637024 -89.82129135 89.57384977 -87.30477905 87.06427002 C-86.53634171 86.29308334 -85.76790436 85.52189667 -84.97618103 84.7273407 C-84.13245438 83.8908046 -83.28872772 83.05426849 -82.41943359 82.19238281 C-81.53156662 81.30422379 -80.64369965 80.41606476 -79.72892761 79.50099182 C-77.29763109 77.06912181 -74.86022036 74.64346479 -72.42166471 72.21887684 C-69.87296197 69.68268208 -67.32992711 67.14081715 -64.7862854 64.59954834 C-59.97023716 59.78971466 -55.14911367 54.98500169 -50.32614577 50.18210769 C-44.83495542 44.71327706 -39.34944739 39.23876193 -33.86440921 33.763762 C-22.58258345 22.5028377 -11.29364333 11.24907311 0 0 Z " fill="#FC4949" transform="translate(141,48)"/>
<path d="M0 0 C0.33 0.99 0.66 1.98 1 3 C-0.65 4.65 -2.3 6.3 -4 8 C14.315 8.495 14.315 8.495 33 9 C33 9.33 33 9.66 33 10 C19.8 10.33 6.6 10.66 -7 11 C-7 7 -7 7 -5.46875 5.078125 C-4.8190625 4.47484375 -4.169375 3.8715625 -3.5 3.25 C-2.8503125 2.63640625 -2.200625 2.0228125 -1.53125 1.390625 C-1.0259375 0.93171875 -0.520625 0.4728125 0 0 Z " fill="#FC4949" transform="translate(148,127)"/>
<path d="M0 0 C0.66 0.33 1.32 0.66 2 1 C1.55527344 1.42410156 1.11054687 1.84820312 0.65234375 2.28515625 C-3.19304307 6.23994148 -3.19304307 6.23994148 -4.125 11.5625 C-1.99818242 18.06110929 1.04520357 21.65042701 7 25 C9.22602615 25.76939681 9.22602615 25.76939681 11 26 C11 26.66 11 27.32 11 28 C4.70734636 27.25968781 0.61869988 24.03703526 -3.3125 19.25 C-6.28575728 14.98780405 -7.41581012 12.23920755 -7 7 C-4.98033669 4.25679752 -2.65591319 2.11943197 0 0 Z " fill="#FC4848" transform="translate(96,179)"/>
<path d="M0 0 C0.99 0.33 1.98 0.66 3 1 C2.33613281 1.56847656 1.67226563 2.13695312 0.98828125 2.72265625 C-4.08304037 7.1572864 -8.37168746 11.31564368 -12 17 C-12.33 16.01 -12.66 15.02 -13 14 C-9.87382798 8.46908028 -5.50021887 3.30013132 0 0 Z " fill="#FC4B4B" transform="translate(52,40)"/>
</svg>
