<?xml version="1.0" encoding="UTF-8"?>
<svg id="Calque_1" data-name="Calque 1" xmlns="http://www.w3.org/2000/svg" version="1.1" viewBox="0 0 800 800">
  <defs>
    <style>
      .cls-1 {
        fill: #000;
      }

      .cls-1, .cls-2, .cls-3 {
        stroke-width: 0px;
      }

      .cls-2 {
        fill: #00ede6;
      }

      .cls-3 {
        fill: #ff0b53;
      }
    </style>
  </defs>
  <g id="icon">
    <path class="cls-3" d="M734,238.4c-92,0-166.5-74.6-166.5-166.5h-124.9v483.4c0,56.2-45.6,101.8-101.8,101.8s-101.8-45.6-101.8-101.8,45.6-101.8,101.8-101.8,22.5,1.6,32,4.6v-127.2c-10.5-1.5-21.2-2.2-32-2.2-125.2,0-226.7,101.5-226.7,226.7s101.5,226.7,226.7,226.7,226.7-101.5,226.7-226.7v-255.9c45.4,37,103.4,59.3,166.5,59.3v-120.3Z"/>
    <path class="cls-2" d="M698.6,203c-92,0-166.5-74.6-166.5-166.5h-124.9v483.4c0,56.2-45.6,101.8-101.8,101.8s-101.8-45.6-101.8-101.8,45.6-101.8,101.8-101.8,22.5,1.6,32,4.6v-127.2c-10.5-1.5-21.2-2.2-32-2.2-125.2,0-226.7,101.5-226.7,226.7s101.5,226.7,226.7,226.7,226.7-101.5,226.7-226.7v-255.9c45.4,37,103.4,59.3,166.5,59.3v-120.3Z"/>
    <path class="cls-1" d="M698.6,234.6c-40.3-8.7-75.1-32-98.7-64-32-23.6-55.3-58.5-64-98.7h-93.3v483.4c0,56.2-45.6,101.8-101.8,101.8s-69.7-19.9-87.5-49.7c-29.8-17.8-49.7-50.3-49.7-87.5,0-56.2,45.6-101.8,101.8-101.8s22.5,1.6,32,4.6v-94.1c-123.7,1.8-223.3,102.6-223.3,226.6s18.6,102.8,49.7,141.6c38.8,31.1,88,49.7,141.6,49.7,125.2,0,226.7-101.5,226.7-226.7v-255.9c45.4,37,103.4,59.3,166.5,59.3v-88.7Z"/>
  </g>
</svg>